# xmcd CD database file
#
# Track frame offsets:
#	150
#	13808
#	32562
#	47540
#	59110
#	78630
#	99678
#
# Disc length: 1523 seconds
#
# Revision: 0
# Processed by: cddbd v1.5.1PL0 Copyright (c) Steve Scherf et al.
# Submitted via: CDex 1.51
#
DISCID=5905f107
DTITLE=CUTTER ACID TACKLE - 儚人
DYEAR=2004
DGENRE=Rock
TTITLE0=絆
TTITLE1=唄い人
TTITLE2=天空
TTITLE3=LINE
TTITLE4=鎌ヌンチャク
TTITLE5=絶唱
TTITLE6=うたかた
EXTD=YEAR: 2004
EXTT0=
EXTT1=
EXTT2=
EXTT3=
EXTT4=
EXTT5=
EXTT6=
PLAYORDER=
